# xmcd
#
# Track frame offsets: 
#        150
#        19955
#        40217
#        57165
#        76090
#        98305
#        118142
#        132842
#        148327
#        167487
#        190235
#        220117
#        241530
#        260180
#
# Disc length: 3726 seconds
#
# Revision: 0
# Processed by: cddbd v1.5.2PL0 Copyright (c) Steve Scherf et al.
# Submitted via: ExactAudioCopy v0.95a5
#
DISCID=bb0e8c0e
DTITLE=Various Artist - HOUSE NATION ELECTRO
DYEAR=2008
DGENRE=House
TTITLE0=The Gossip - Standing In The Way Of Control [Soulwax Nite Vers
TTITLE0=ion]
TTITLE1=Bodyrox Feat. Luciana - Yeah Yeah [D.Ramirez Vocal Club Mix]
TTITLE2=Larry Tee Feat. Princess Superstar - Licky (Work It Out) [Herv
TTITLE2=e Goes Low Remix]
TTITLE3=Riot In Belgium - La Musique [Adam Sky Remix]
TTITLE4=Shinichi Osawa - Detonator
TTITLE5=Christopher Just - Popper [Shinichi Osawa Distortion]
TTITLE6=Simian Mobile Disco - I Believe
TTITLE7=Thieves Like Us - Drugs In My Body
TTITLE8=Fox 'n' Wolf - Youth Alcoholic [Etienne De Crecy Remix]
TTITLE9=The Bird and The Bee - F*cking Boyfriend [Peaches Remix]
TTITLE10=Manson Vs. Princess Superstar - Perfect (Exceeder) [Vocal Clu
TTITLE10=b Mix]
TTITLE11=Soulwax - Another Excuse [DFA Remix]
TTITLE12=Federico Franchi - Cream
TTITLE13=Boys Noize - Feel Good (TV=Off) [Shinichi Osawa Edit]
EXTD=
EXTT0=
EXTT1=
EXTT2=
EXTT3=
EXTT4=
EXTT5=
EXTT6=
EXTT7=
EXTT8=
EXTT9=
EXTT10=
EXTT11=
EXTT12=
EXTT13=
PLAYORDER=
